<?xml version="1.0" encoding="utf-8"?><!-- Uploaded to: SVG Repo, www.svgrepo.com, Generator: SVG Repo Mixer Tools -->
<svg fill="#000000" width="75px" height="75px" viewBox="0 0 24 24" id="heat" data-name="Line Color" xmlns="http://www.w3.org/2000/svg" class="icon line-color">
<path id="thermo" d="M8,17h8a1,1,0,0,1,1,1v3a0,0,0,0,1,0,0H7a0,0,0,0,1,0,0V18A1,1,0,0,1,8,17Z" style="fill: none; stroke: rgb(188, 44, 44); stroke-linecap: round; stroke-linejoin: round; stroke-width: 2;"></path>
<path id="primary" d="M12,11h8a1,1,0,0,1,1,1v8a1,1,0,0,1-1,1H4a1,1,0,0,1-1-1V12a1,1,0,0,1,1-1H6" style="fill: none; stroke: rgb(0, 0, 0); stroke-linecap: round; stroke-linejoin: round; stroke-width: 2;">
</path><path id="AC" data-name="AC" d="M11,7.78V5A2,2,0,0,0,9,3H9A2,2,0,0,0,7,5V7.78a3,3,0,0,0-1,2.75A3,3,0,0,0,12,10,3,3,0,0,0,11,7.78ZM15,6h4M17,4V8" style="fill: none; stroke: rgb(188, 44, 44); stroke-linecap: round; stroke-linejoin: round; stroke-width: 2;"></path></svg>